<svg width="70" height="70" viewBox="0 0 70 70" fill="none" xmlns="http://www.w3.org/2000/svg">
<rect width="70" height="70" rx="6" fill="#1B1B1B"/>
<path d="M31.4716 61H13.4247V10.0909H31.6207C36.7415 10.0909 41.1496 11.1101 44.8452 13.1484C48.5407 15.1702 51.3828 18.0786 53.3715 21.8736C55.3767 25.6686 56.3793 30.2093 56.3793 35.4957C56.3793 40.7988 55.3767 45.3561 53.3715 49.1676C51.3828 52.9792 48.5241 55.9041 44.7955 57.9425C41.0833 59.9808 36.642 61 31.4716 61ZM24.1882 51.7777H31.0241C34.206 51.7777 36.8823 51.2143 39.0533 50.0874C41.2408 48.9439 42.8814 47.179 43.9751 44.7926C45.0855 42.3897 45.6406 39.2907 45.6406 35.4957C45.6406 31.7339 45.0855 28.6598 43.9751 26.2734C42.8814 23.8871 41.2491 22.1304 39.0781 21.0035C36.9072 19.8767 34.2308 19.3132 31.049 19.3132H24.1882V51.7777Z" fill="#288C7A"/>
</svg>
