<svg width="50" height="50" viewBox="0 0 50 50" fill="none" xmlns="http://www.w3.org/2000/svg">
<path fill-rule="evenodd" clip-rule="evenodd" d="M24.2227 3.84524V6.62951C24.2227 7.04605 24.56 7.38343 24.9766 7.38343C25.3931 7.38343 25.7305 7.04605 25.7305 6.62951V3.84524C25.7305 3.42869 25.3931 3.09131 24.9766 3.09131C24.56 3.09131 24.2227 3.42869 24.2227 3.84524Z" fill="white"/>
<path fill-rule="evenodd" clip-rule="evenodd" d="M5.33986 24.2827H8.12414C8.54068 24.2827 8.87806 23.9453 8.87806 23.5288C8.87806 23.1122 8.54068 22.7749 8.12414 22.7749H5.33986C4.92332 22.7749 4.58594 23.1122 4.58594 23.5288C4.58594 23.9453 4.92332 24.2827 5.33986 24.2827Z" fill="white"/>
<path fill-rule="evenodd" clip-rule="evenodd" d="M10.6809 10.177L12.6508 12.1468C12.9455 12.4416 13.4229 12.4416 13.7176 12.1468C14.0123 11.8521 14.0123 11.3747 13.7176 11.08L11.7477 9.11015C11.453 8.81544 10.9756 8.81544 10.6809 9.11015C10.3862 9.40486 10.3862 9.88225 10.6809 10.177Z" fill="white"/>
<path fill-rule="evenodd" clip-rule="evenodd" d="M38.3284 9.18599L36.3585 11.1559C36.0638 11.4506 36.0638 11.928 36.3585 12.2227C36.6532 12.5174 37.1306 12.5174 37.4253 12.2227L39.3952 10.2528C39.6899 9.9581 39.6899 9.4807 39.3952 9.18599C39.1005 8.89129 38.6231 8.89129 38.3284 9.18599Z" fill="white"/>
<path fill-rule="evenodd" clip-rule="evenodd" d="M44.6601 22.728H41.8759C41.4593 22.728 41.1219 23.0654 41.1219 23.482C41.1219 23.8985 41.4593 24.2359 41.8759 24.2359H44.6601C45.0767 24.2359 45.4141 23.8985 45.4141 23.482C45.4141 23.0654 45.0767 22.728 44.6601 22.728Z" fill="white"/>
<path fill-rule="evenodd" clip-rule="evenodd" d="M12.8921 29.4437C10.2361 29.2853 7.94721 30.0664 6.63391 30.6703C6.63391 30.6703 6.63316 30.6703 6.63316 30.671C5.63574 31.1309 5.11856 32.2459 5.41258 33.3052C5.41409 33.3104 5.4156 33.3165 5.41711 33.3218C6.16498 35.7863 8.31889 41.2875 12.9735 43.9752C18.8804 47.3859 22.7524 47.1295 24.9923 46.3048C27.211 47.116 31.0816 47.3934 37.002 43.9752C41.6566 41.2875 43.8105 35.7863 44.5584 33.3218C44.5599 33.3165 44.5614 33.3104 44.5629 33.3052C44.857 32.2459 44.3398 31.1309 43.3424 30.671C43.3424 30.6703 43.3416 30.6703 43.3416 30.6703C42.0208 30.0634 39.7138 29.2763 37.0397 29.4467C37.6376 27.9547 37.9663 26.3263 37.9663 24.6224C37.9663 17.4475 32.1408 11.6221 24.9659 11.6221C17.791 11.6221 11.9655 17.4475 11.9655 24.6224C11.9655 26.3255 12.2942 27.9532 12.8921 29.4437ZM26.8499 45.2259C28.9149 45.5373 31.9765 45.1355 36.2481 42.6694C40.5016 40.214 42.4249 35.1568 43.1147 32.8852C43.2014 32.5437 43.0325 32.1879 42.7113 32.0401C40.8793 31.1988 36.8844 29.9314 32.8759 32.2459C29.852 33.992 27.4462 37.3634 25.8525 40.1016C26.4518 41.1805 26.9147 42.1259 27.2246 42.7991C27.2261 42.8014 27.2269 42.8044 27.2284 42.8066C27.5963 43.6329 27.4297 44.5783 26.8499 45.2259ZM17.0996 32.2459C21.5959 34.8416 24.739 41.0071 25.8525 43.4233C25.9972 43.752 25.8864 44.138 25.5901 44.3393C23.9934 45.3564 20.2954 46.4616 13.7274 42.6694C9.47538 40.2147 7.55217 35.1605 6.86461 32.8981C6.77112 32.5513 6.94 32.1894 7.26418 32.0401C9.09617 31.1988 13.0911 29.9314 17.0996 32.2459ZM35.2778 29.6992C36.0332 28.168 36.4584 26.4439 36.4584 24.6224C36.4584 18.2791 31.3085 13.1299 24.9659 13.1299C18.6233 13.1299 13.4733 18.2791 13.4733 24.6224C13.4733 26.4408 13.8963 28.1613 14.6509 29.6887C15.6966 29.9194 16.7747 30.3174 17.8535 30.9402C20.4311 32.4284 22.6069 35.0067 24.2497 37.4697V30.8897C21.6766 30.5225 19.6961 28.3083 19.6961 25.6349C19.6961 25.2188 20.0338 24.881 20.45 24.881C20.8662 24.881 21.2039 25.2188 21.2039 25.6349C21.2039 27.7323 22.9062 29.4346 25.0036 29.4346C27.101 29.4346 28.804 27.7323 28.804 25.6349C28.804 25.2188 29.1418 24.881 29.5579 24.881C29.9741 24.881 30.3118 25.2188 30.3118 25.6349C30.3118 28.3083 28.3306 30.5225 25.7575 30.8897V37.4087C27.3988 34.96 29.5647 32.4171 32.122 30.9402C33.185 30.3265 34.2472 29.9314 35.2778 29.6992Z" fill="white"/>
</svg>
